<?xml version="1.0" encoding="UTF-8" standalone="no"?>
<!-- Created with Inkscape (http://www.inkscape.org/) -->

<svg
   width="150"
   height="107"
   viewBox="0 0 102.39375 73.025003"
   version="1.1"
   id="svg5"
   inkscape:version="1.1 (c4e8f9e, 2021-05-24)"
   sodipodi:docname="akashic_logo.svg"
   xmlns:inkscape="http://www.inkscape.org/namespaces/inkscape"
   xmlns:sodipodi="http://sodipodi.sourceforge.net/DTD/sodipodi-0.dtd"
   xmlns="http://www.w3.org/2000/svg"
   xmlns:svg="http://www.w3.org/2000/svg">
  <sodipodi:namedview
     id="namedview7"
     pagecolor="#ffffff"
     bordercolor="#666666"
     borderopacity="1.0"
     inkscape:pageshadow="2"
     inkscape:pageopacity="0.0"
     inkscape:pagecheckerboard="0"
     inkscape:document-units="px"
     showgrid="false"
     fit-margin-top="0"
     fit-margin-left="0"
     fit-margin-right="0"
     fit-margin-bottom="0"
     units="px"
     inkscape:zoom="0.4710399"
     inkscape:cx="-640.07317"
     inkscape:cy="238.83327"
     inkscape:window-width="1716"
     inkscape:window-height="1081"
     inkscape:window-x="0"
     inkscape:window-y="25"
     inkscape:window-maximized="0"
     inkscape:current-layer="layer1" />
  <defs
     id="defs2">
    <clipPath
       clipPathUnits="userSpaceOnUse"
       id="clipPath71">
      <path
         d="M 0,612.288 H 858.898 V 0 H 0 Z"
         id="path69" />
    </clipPath>
  </defs>
  <g
     inkscape:label="レイヤー 1"
     inkscape:groupmode="layer"
     id="layer1"
     transform="translate(-3.7359469,-5.409032)">
    <path
       d="m 47.959039,75.412381 h -5.40632 V 73.60899 h 5.40632 z m 3.301294,-9.354196 -11.726333,0.001 v 2.933322 l 8.418689,0.0148 v 1.689441 l -8.418689,-0.003 0.012,7.625245 h 11.71963 z"
       style="fill:#ce0d0d;fill-opacity:1;fill-rule:nonzero;stroke:none;stroke-width:0.352778"
       id="path33" />
    <g
       id="g35"
       transform="matrix(0.35277777,0,0,-0.35277777,71.610777,59.736121)">
      <path
         d="M 0,0 H -9.59 V -52.677 H 0 v 26.493 l 15.023,-0.007 -0.004,-26.486 h 9.53 v 34.756 H -0.002 Z"
         style="fill:#ce0d0d;fill-opacity:1;fill-rule:nonzero;stroke:none"
         id="path37" />
    </g>
    <path
       d="m 86.439318,59.736091 h -3.441333 v 2.443675 h 3.441333 z"
       style="fill:#ce0d0d;fill-opacity:1;fill-rule:nonzero;stroke:none;stroke-width:0.352778"
       id="path39" />
    <g
       id="g41"
       transform="matrix(0.35277777,0,0,-0.35277777,86.439178,78.319183)">
      <path
         d="M 0,0 V 40.046 H -9.755 V 0 Z"
         style="fill:#ce0d0d;fill-opacity:1;fill-rule:nonzero;stroke:none"
         id="path43" />
    </g>
    <g
       id="g45"
       transform="matrix(0.35277777,0,0,-0.35277777,103.87281,75.412241)">
      <path
         d="m 0,0 h -30.679 v 18.179 l 17.869,0.022 -5.816,8.315 -21.963,-0.013 0.025,-34.711 46.338,-0.028 z"
         style="fill:#ce0d0d;fill-opacity:1;fill-rule:nonzero;stroke:none"
         id="path47" />
    </g>
    <g
       id="g49"
       transform="matrix(0.35277777,0,0,-0.35277777,13.45568,70.205341)">
      <path
         d="M 0,0 15.277,21.953 V 0 Z M 9.02,29.566 -27.552,-23 h 11.555 l 9.094,13.081 h 22.18 V -23 h 9.919 v 52.566 z"
         style="fill:#ce0d0d;fill-opacity:1;fill-rule:nonzero;stroke:none"
         id="path51" />
    </g>
    <g
       id="g53"
       transform="matrix(0.35277777,0,0,-0.35277777,25.89166,78.319223)">
      <path
         d="M 0,0 H 9.644 L 9.585,52.71 h -9.644 z"
         style="fill:#ce0d0d;fill-opacity:1;fill-rule:nonzero;stroke:none"
         id="path55" />
    </g>
    <g
       id="g57"
       transform="matrix(0.35277777,0,0,-0.35277777,33.903526,66.058145)">
      <path
         d="M 0,0 -12.01,-16.133 -1.929,-34.742 11.548,-34.748 -1.315,-16.133 11.528,0 Z"
         style="fill:#ce0d0d;fill-opacity:1;fill-rule:nonzero;stroke:none"
         id="path59" />
    </g>
    <g
       id="g61"
       transform="matrix(0.35277777,0,0,-0.35277777,53.953192,73.60889)">
      <path
         d="M 0,0 H 24.82 V -5.117 L 0,-5.104 0.048,-13.352 H 33.255 L 33.244,8.255 8.917,8.253 v 4.79 h 24.3 v 8.356 L -0.013,21.4 Z"
         style="fill:#ce0d0d;fill-opacity:1;fill-rule:nonzero;stroke:none"
         id="path63" />
    </g>
    <g
       id="g65"
       transform="matrix(0.35277777,0,0,-0.35277777,-96.938433,157.98764)">
      <g
         id="g67"
         clip-path="url(#clipPath71)">
        <g
           id="g73"
           transform="translate(429.9463,432.5063)">
          <path
             d="m 0,0 v 0 l -98.66,-140.899 v 0 h 42.575 v 0 l 12.324,17.601 c -3.325,6.421 -5.285,13.675 -5.477,21.39 -0.678,27.193 20.817,49.787 48.01,50.465 27.193,0.678 49.787,-20.816 50.465,-48.01 0.215,-8.589 -1.788,-16.716 -5.479,-23.842 l 12.327,-17.604 v 0 h 42.793 z"
             style="fill:#ce0d0d;fill-opacity:1;fill-rule:nonzero;stroke:none"
             id="path75" />
        </g>
        <g
           id="g77"
           transform="translate(444.5435,356.3106)">
          <path
             d="M 0,0 C 0.593,1.049 1.216,2.151 1.847,3.266 1.216,2.151 0.593,1.049 0,0"
             style="fill:#ffffff;fill-opacity:1;fill-rule:nonzero;stroke:none"
             id="path79" />
        </g>
        <g
           id="g81"
           transform="translate(451.724,368.9696)">
          <path
             d="M 0,0 C -0.507,-0.886 -1.305,-2.289 -2.244,-3.944 -1.305,-2.289 -0.507,-0.886 0,0 Z"
             style="fill:#ffffff;fill-opacity:1;fill-rule:nonzero;stroke:none"
             id="path83" />
        </g>
        <g
           id="g85"
           transform="translate(446.3908,359.5768)">
          <path
             d="M 0,0 C 1.069,1.889 2.149,3.795 3.089,5.449 2.149,3.795 1.069,1.889 0,0"
             style="fill:#ffffff;fill-opacity:1;fill-rule:nonzero;stroke:none"
             id="path87" />
        </g>
        <g
           id="g89"
           transform="translate(445.433,347.3112)">
          <path
             d="M 0,0 C -1.283,1.25 -2.473,2.217 -4.086,3.232 -2.472,2.217 -1.249,1.206 0,0"
             style="fill:#ffffff;fill-opacity:1;fill-rule:nonzero;stroke:none"
             id="path91" />
        </g>
        <g
           id="g93"
           transform="translate(445.4572,347.2888)">
          <path
             d="m 0,0 c 5.219,5.063 9.854,9.559 15.236,14.779 v 0 C 9.854,9.559 5.219,5.063 0,0 Z"
             style="fill:#ffffff;fill-opacity:1;fill-rule:nonzero;stroke:none"
             id="path95" />
        </g>
        <g
           id="g97"
           transform="translate(445.4572,347.2888)">
          <path
             d="M 0,0 V 0 0 C -0.008,0.008 -0.016,0.015 -0.024,0.022 -1.273,1.228 -2.496,2.239 -4.111,3.255 -4.124,3.263 -4.135,3.271 -4.148,3.28 -3.552,4.348 5.76,20.795 6.267,21.681 v 0 c 0.388,-0.233 0.783,-0.48 1.181,-0.739 2.786,-1.811 5.737,-4.185 7.788,-6.163 v 0 C 9.854,9.559 5.219,5.063 0,0 m -15.214,-35.341 c -10.892,-0.226 -19.997,8.473 -20.251,19.348 -0.259,11.065 8.452,20.126 19.555,20.342 11.23,0.217 20.319,-8.559 20.493,-19.785 0.165,-10.7 -8.763,-19.677 -19.797,-19.905 m -6.318,-8.084 -0.456,0.11 c -4.546,1.089 -8.709,3.249 -12.185,6.235 -2.757,2.368 -5.082,5.255 -6.818,8.545 l -0.235,0.449 1.86,1.144 0.264,-0.517 c 2.039,-3.889 4.957,-7.169 8.463,-9.622 2.779,-1.944 5.928,-3.369 9.306,-4.159 l 0.615,-0.141 z m -1.94,-5.091 -0.466,0.125 c -6.949,1.845 -13.153,5.845 -17.749,11.312 -1.504,1.791 -2.838,3.737 -3.966,5.818 l -0.243,0.451 1.851,1.141 0.276,-0.503 c 1.365,-2.53 3.05,-4.847 4.99,-6.907 4.182,-4.441 9.56,-7.684 15.526,-9.243 l 0.595,-0.154 z m -2.005,-4.809 -0.47,0.135 c -9.014,2.536 -16.925,8.329 -22.17,16.113 -0.656,0.973 -1.277,1.973 -1.846,3.006 l -0.25,0.452 1.854,1.143 0.274,-0.502 c 0.785,-1.429 1.67,-2.794 2.627,-4.1 4.967,-6.773 12.116,-11.793 20.209,-14.046 l 0.584,-0.163 z m 8.707,82.911 c -25.083,-0.592 -44.521,-21.44 -43.777,-46.954 0.208,-7.156 2.116,-13.836 5.328,-19.707 7.9,-14.443 23.737,-23.96 41.91,-23.413 16.091,0.484 30.037,9.901 37.371,23.395 3.697,6.801 5.721,14.634 5.479,22.889 -0.735,25.062 -21.169,44.385 -46.311,43.79"
             style="fill:#ce0d0d;fill-opacity:1;fill-rule:nonzero;stroke:none"
             id="path99" />
        </g>
        <g
           id="g101"
           transform="translate(460.6935,362.0681)">
          <path
             d="M 0,0 C -2.052,1.977 -5.002,4.351 -7.788,6.162 -5.002,4.351 -2.052,1.977 0,0"
             style="fill:#ce0d0d;fill-opacity:1;fill-rule:nonzero;stroke:none"
             id="path103" />
        </g>
        <g
           id="g105"
           transform="translate(445.457,347.2888)">
          <path
             d="M 0,0 V 0 C -0.008,0.008 -0.016,0.015 -0.024,0.022 -0.016,0.015 -0.008,0.008 0,0"
             style="fill:#ce0d0d;fill-opacity:1;fill-rule:nonzero;stroke:none"
             id="path107" />
        </g>
        <g
           id="g109"
           transform="translate(451.7241,368.9696)">
          <path
             d="M 0,0 V 0 C 0.388,-0.233 0.783,-0.48 1.181,-0.739 0.783,-0.48 0.388,-0.233 0,0"
             style="fill:#ce0d0d;fill-opacity:1;fill-rule:nonzero;stroke:none"
             id="path111" />
        </g>
        <g
           id="g113"
           transform="translate(441.3466,350.5435)">
          <path
             d="m 0,0 c -0.013,0.008 -0.024,0.017 -0.037,0.025 0.596,1.068 0.595,1.068 -0.001,0 C -0.024,0.017 -0.013,0.008 0,0"
             style="fill:#ce0d0d;fill-opacity:1;fill-rule:nonzero;stroke:none"
             id="path115" />
        </g>
        <g
           id="g117"
           transform="translate(429.5318,344.5966)">
          <path
             d="m 0,0 c 7.194,0.171 13.214,-5.478 13.327,-12.504 0.11,-6.939 -5.541,-12.884 -12.45,-13.098 -7.042,-0.218 -12.972,5.257 -13.23,12.218 C -12.62,-6.194 -7.058,-0.168 0,0 m 0.828,-28.773 c 8.786,0.114 15.841,7.467 15.63,16.291 -0.216,9.021 -7.547,15.958 -16.549,15.659 -8.874,-0.296 -15.746,-7.584 -15.491,-16.431 0.255,-8.85 7.43,-15.635 16.41,-15.519"
             style="fill:#ce0d0d;fill-opacity:1;fill-rule:nonzero;stroke:none"
             id="path119" />
        </g>
      </g>
    </g>
  </g>
</svg>
